<mxfile host="d743c574-71ce-4116-8486-0a1d4b3192fe" modified="2020-07-29T13:41:33.159Z" agent="5.0 (X11; Linux x86_64) AppleWebKit/537.36 (KHTML, like Gecko) Code/1.47.2 Chrome/78.0.3904.130 Electron/7.3.2 Safari/537.36" etag="ZaX-rg2pskhbuZb-ObhC" version="13.1.3">
    <diagram id="6hGFLwfOUW9BJ-s0fimq" name="Page-1">
        <mxGraphModel dx="1263" dy="525" grid="1" gridSize="10" guides="1" tooltips="1" connect="1" arrows="1" fold="1" page="1" pageScale="1" pageWidth="827" pageHeight="1169" math="0" shadow="0">
            <root>
                <mxCell id="0"/>
                <mxCell id="1" parent="0"/>
                <mxCell id="11" value="&lt;h1&gt;Question&lt;/h1&gt;&lt;p&gt;&lt;ul&gt;&lt;li&gt;Title&lt;/li&gt;&lt;li&gt;Points&lt;/li&gt;&lt;li&gt;Question Type&lt;/li&gt;&lt;li&gt;Text&lt;/li&gt;&lt;li&gt;Time Limit in ms&lt;/li&gt;&lt;/ul&gt;&lt;/p&gt;&lt;p&gt;&lt;ul&gt;&lt;li&gt;Author&lt;/li&gt;&lt;/ul&gt;&lt;/p&gt;" style="text;html=1;spacing=5;spacingTop=-18;whiteSpace=wrap;overflow=hidden;rounded=1;arcSize=9;perimeterSpacing=0;strokeWidth=2;spacingLeft=7;fillColor=#333333;strokeColor=none;" vertex="1" parent="1">
                    <mxGeometry x="40" y="40" width="190" height="160" as="geometry"/>
                </mxCell>
            </root>
        </mxGraphModel>
    </diagram>
</mxfile>